<svg width="149" height="51" viewBox="0 0 149 51" fill="none" xmlns="http://www.w3.org/2000/svg">
<path d="M20.405 42.2725V37.8565L32.549 24.2885H20.405V19.8725H38.517V24.2885L26.373 37.8565H38.517V42.2725H20.405ZM52.789 26.2725H57.205V42.2725H52.773L52.565 40.6085C52.149 41.2271 51.6157 41.7285 50.965 42.1125C50.3143 42.4965 49.5517 42.6885 48.677 42.6885C47.4823 42.6885 46.3677 42.4645 45.333 42.0165C44.2983 41.5685 43.3863 40.9498 42.597 40.1605C41.8077 39.3711 41.189 38.4591 40.741 37.4245C40.3037 36.3791 40.085 35.2591 40.085 34.0645C40.085 32.9231 40.293 31.8565 40.709 30.8645C41.125 29.8725 41.7117 28.9978 42.469 28.2405C43.2263 27.4831 44.0957 26.8911 45.077 26.4645C46.069 26.0378 47.1357 25.8245 48.277 25.8245C49.2583 25.8245 50.1383 26.0325 50.917 26.4485C51.7063 26.8645 52.3943 27.3925 52.981 28.0325L52.789 26.2725ZM48.565 38.4485C49.2903 38.4485 49.9463 38.2618 50.533 37.8885C51.1197 37.5151 51.5837 37.0138 51.925 36.3845C52.2663 35.7445 52.437 35.0405 52.437 34.2725C52.437 33.4938 52.2663 32.7898 51.925 32.1605C51.5837 31.5311 51.1197 31.0298 50.533 30.6565C49.9463 30.2831 49.2903 30.0965 48.565 30.0965C47.829 30.0965 47.1623 30.2831 46.565 30.6565C45.9677 31.0298 45.493 31.5365 45.141 32.1765C44.789 32.8058 44.613 33.5045 44.613 34.2725C44.613 35.0405 44.789 35.7445 45.141 36.3845C45.5037 37.0138 45.9837 37.5151 46.581 37.8885C47.1783 38.2618 47.8397 38.4485 48.565 38.4485ZM64.836 50.2725H60.42V26.2725H64.836V28.0005C65.348 27.3711 65.956 26.8591 66.66 26.4645C67.364 26.0591 68.1853 25.8565 69.124 25.8565C70.2867 25.8565 71.3747 26.0751 72.388 26.5125C73.412 26.9498 74.308 27.5578 75.076 28.3365C75.844 29.1045 76.4467 29.9951 76.884 31.0085C77.3213 32.0218 77.54 33.1098 77.54 34.2725C77.54 35.4351 77.3213 36.5285 76.884 37.5525C76.4467 38.5765 75.844 39.4778 75.076 40.2565C74.308 41.0245 73.412 41.6271 72.388 42.0645C71.3747 42.5018 70.2867 42.7205 69.124 42.7205C68.1853 42.7205 67.364 42.5178 66.66 42.1125C65.956 41.7071 65.348 41.1951 64.836 40.5765V50.2725ZM69.06 30.0965C68.3347 30.0965 67.6787 30.2885 67.092 30.6725C66.516 31.0458 66.0573 31.5471 65.716 32.1765C65.3853 32.8058 65.22 33.5045 65.22 34.2725C65.22 35.0405 65.3853 35.7445 65.716 36.3845C66.0573 37.0138 66.516 37.5151 67.092 37.8885C67.6787 38.2618 68.3347 38.4485 69.06 38.4485C69.7853 38.4485 70.4467 38.2618 71.044 37.8885C71.652 37.5151 72.132 37.0138 72.484 36.3845C72.8467 35.7551 73.028 35.0511 73.028 34.2725C73.028 33.5151 72.852 32.8218 72.5 32.1925C72.148 31.5525 71.668 31.0458 71.06 30.6725C70.4627 30.2885 69.796 30.0965 69.06 30.0965ZM88.564 42.6885C87.3053 42.6885 86.1 42.4911 84.948 42.0965C83.8067 41.7018 82.804 41.1311 81.94 40.3845C81.0867 39.6378 80.4733 38.7525 80.1 37.7285L84.244 36.1925C84.372 36.5551 84.6387 36.8965 85.044 37.2165C85.4493 37.5258 85.956 37.7818 86.564 37.9845C87.172 38.1765 87.8387 38.2725 88.564 38.2725C89.2573 38.2725 89.908 38.1711 90.516 37.9685C91.1347 37.7551 91.6307 37.4618 92.004 37.0885C92.388 36.7151 92.58 36.2778 92.58 35.7765C92.58 35.2751 92.3827 34.8591 91.988 34.5285C91.5933 34.1978 91.0867 33.9365 90.468 33.7445C89.8493 33.5418 89.2147 33.3871 88.564 33.2805C86.9533 33.0458 85.508 32.6671 84.228 32.1445C82.9587 31.6111 81.956 30.8805 81.22 29.9525C80.484 29.0138 80.116 27.8245 80.116 26.3845C80.116 24.9978 80.5053 23.7871 81.284 22.7525C82.0733 21.7178 83.108 20.9125 84.388 20.3365C85.6787 19.7605 87.0707 19.4725 88.564 19.4725C89.8013 19.4725 90.996 19.6698 92.148 20.0645C93.3 20.4591 94.3027 21.0298 95.156 21.7765C96.02 22.5231 96.6387 23.4191 97.012 24.4645L92.868 25.9685C92.74 25.6058 92.4733 25.2698 92.068 24.9605C91.6627 24.6511 91.156 24.4005 90.548 24.2085C89.94 24.0165 89.2787 23.9205 88.564 23.9205C87.8813 23.9098 87.2307 24.0111 86.612 24.2245C86.004 24.4378 85.5027 24.7311 85.108 25.1045C84.724 25.4778 84.532 25.9045 84.532 26.3845C84.532 27.0138 84.7133 27.4885 85.076 27.8085C85.4493 28.1285 85.94 28.3578 86.548 28.4965C87.156 28.6351 87.828 28.7578 88.564 28.8645C90.0787 29.0885 91.476 29.4885 92.756 30.0645C94.036 30.6298 95.06 31.3871 95.828 32.3365C96.6067 33.2751 96.996 34.4218 96.996 35.7765C96.996 37.1631 96.6067 38.3738 95.828 39.4085C95.0493 40.4431 94.02 41.2485 92.74 41.8245C91.46 42.4005 90.068 42.6885 88.564 42.6885ZM115.44 32.0965V42.2725H111.024V33.3125C111.024 32.7471 110.886 32.2405 110.608 31.7925C110.342 31.3338 109.979 30.9711 109.52 30.7045C109.072 30.4378 108.571 30.3045 108.016 30.3045C107.462 30.3045 106.955 30.4378 106.496 30.7045C106.038 30.9711 105.675 31.3338 105.408 31.7925C105.142 32.2405 105.008 32.7471 105.008 33.3125V42.2725H100.592L100.576 18.2725H104.992L105.008 27.4565C105.542 26.9445 106.166 26.5445 106.88 26.2565C107.606 25.9685 108.368 25.8245 109.168 25.8245C110.331 25.8245 111.382 26.1071 112.32 26.6725C113.27 27.2378 114.027 27.9951 114.592 28.9445C115.158 29.8831 115.44 30.9338 115.44 32.0965ZM118.639 26.2725H123.055V42.2725H118.639V26.2725ZM120.879 24.4325C120.239 24.4325 119.7 24.2191 119.263 23.7925C118.825 23.3658 118.607 22.8378 118.607 22.2085C118.607 21.5791 118.825 21.0511 119.263 20.6245C119.7 20.1978 120.233 19.9845 120.863 19.9845C121.492 19.9845 122.02 20.1978 122.447 20.6245C122.884 21.0511 123.103 21.5791 123.103 22.2085C123.103 22.8378 122.889 23.3658 122.463 23.7925C122.047 24.2191 121.519 24.4325 120.879 24.4325ZM131.785 23.1685V26.2725H136.025V30.6885H131.785V42.2725H127.369V30.6885H125.769V26.2725H127.369V23.1685C127.369 22.1978 127.609 21.3178 128.089 20.5285C128.569 19.7285 129.209 19.0885 130.009 18.6085C130.819 18.1285 131.71 17.8885 132.681 17.8885C133.395 17.8885 134.099 18.0378 134.793 18.3365C135.486 18.6245 136.105 19.0778 136.649 19.6965L133.481 22.8165C133.406 22.6458 133.294 22.5178 133.145 22.4325C132.995 22.3471 132.841 22.3045 132.681 22.3045C132.435 22.3045 132.222 22.3898 132.041 22.5605C131.87 22.7205 131.785 22.9231 131.785 23.1685ZM147.905 30.6885H145.025V42.2725H140.609V30.6885H138.401V26.2725H140.609V21.2485H145.025V26.2725H147.905V30.6885Z" fill="#303030"/>
<path d="M0.779612 12.5991L21.9235 0.452617C22.4102 0.173031 23.0099 0.177731 23.4921 0.46491L34.8033 7.20078C35.8153 7.80345 35.8146 9.26919 34.802 9.87088L15.5787 21.2934C15.1075 21.5734 14.8188 22.0809 14.8188 22.6289V45.2615C14.8188 46.4678 13.5037 47.2138 12.4683 46.5948L0.756314 39.5931C0.287213 39.3126 0 38.8063 0 38.2598V13.9461C0 13.3899 0.297348 12.8762 0.779612 12.5991Z" fill="#CAEB66"/>
</svg>
